<svg width="12" height="12" viewBox="0 0 12 12" fill="none" xmlns="http://www.w3.org/2000/svg">
<path d="M3.27257 10.2177H4.22951C4.31076 10.2177 4.36944 10.2358 4.42812 10.299L5.10972 10.976C5.71007 11.5764 6.27882 11.5764 6.87917 10.976L7.55625 10.299C7.61944 10.2358 7.67812 10.2177 7.75937 10.2177H8.71632C9.56493 10.2177 9.97118 9.81146 9.97118 8.96285V8.0059C9.97118 7.92465 9.99375 7.86597 10.0524 7.80278L10.7295 7.12569C11.3344 6.52535 11.3299 5.9566 10.7295 5.35625L10.0524 4.67465C9.99375 4.61597 9.97118 4.55729 9.97118 4.47604V3.5191C9.97118 2.67049 9.56493 2.26424 8.71632 2.26424H7.75937C7.67812 2.26424 7.61944 2.24167 7.55625 2.18299L6.87917 1.5059C6.27882 0.901042 5.71007 0.901042 5.10972 1.5059L4.42812 2.18299C4.36944 2.24167 4.31076 2.26424 4.22951 2.26424H3.27257C2.41944 2.26424 2.01771 2.66146 2.01771 3.5191V4.47604C2.01771 4.55729 1.99514 4.61597 1.93646 4.67465L1.25937 5.35625C0.654514 5.9566 0.659028 6.52535 1.25937 7.12569L1.93646 7.80278C1.99514 7.86597 2.01771 7.92465 2.01771 8.0059V8.96285C2.01771 9.81146 2.41944 10.2177 3.27257 10.2177ZM5.4934 8.48438C5.30833 8.48438 5.16389 8.40313 5.02847 8.23611L3.94062 6.92257C3.85035 6.80972 3.80972 6.70139 3.80972 6.57951C3.80972 6.32674 4.01285 6.12813 4.26111 6.12813C4.41007 6.12813 4.52743 6.18229 4.64479 6.33125L5.47986 7.37396L7.29896 4.47153C7.40729 4.3 7.54271 4.21424 7.70069 4.21424C7.94444 4.21424 8.17014 4.39028 8.17014 4.64306C8.17014 4.75139 8.11597 4.86875 8.04826 4.97708L5.94028 8.22708C5.83194 8.3941 5.67396 8.48438 5.4934 8.48438Z" fill="#0593FF"/>
</svg>
