<svg width="6" height="10" viewBox="0 0 6 10" fill="none" xmlns="http://www.w3.org/2000/svg">
<path d="M5.36841 5.25928C5.36182 5.45044 5.2959 5.62183 5.14429 5.76685L1.13647 9.7417C1.01123 9.86694 0.853027 9.93286 0.668457 9.93286C0.292725 9.93286 0.00268555 9.63623 0.00268555 9.2605C0.00268555 9.08252 0.0751953 8.91113 0.207031 8.7793L3.76001 5.25928L0.207031 1.73926C0.0751953 1.60742 0.00268555 1.44263 0.00268555 1.25146C0.00268555 0.882324 0.292725 0.585693 0.668457 0.585693C0.853027 0.585693 1.01123 0.651611 1.13647 0.776855L5.14429 4.75171C5.2959 4.89673 5.36841 5.06812 5.36841 5.25928Z" fill="black"/>
</svg>
